%TF.GenerationSoftware,KiCad,Pcbnew,(6.0.0)*%
%TF.CreationDate,2022-04-14T10:30:36+02:00*%
%TF.ProjectId,StepDown_Converter,53746570-446f-4776-9e5f-436f6e766572,rev?*%
%TF.SameCoordinates,Original*%
%TF.FileFunction,Copper,L1,Top*%
%TF.FilePolarity,Positive*%
%FSLAX46Y46*%
G04 Gerber Fmt 4.6, Leading zero omitted, Abs format (unit mm)*
G04 Created by KiCad (PCBNEW (6.0.0)) date 2022-04-14 10:30:36*
%MOMM*%
%LPD*%
G01*
G04 APERTURE LIST*
G04 Aperture macros list*
%AMRoundRect*
0 Rectangle with rounded corners*
0 $1 Rounding radius*
0 $2 $3 $4 $5 $6 $7 $8 $9 X,Y pos of 4 corners*
0 Add a 4 corners polygon primitive as box body*
4,1,4,$2,$3,$4,$5,$6,$7,$8,$9,$2,$3,0*
0 Add four circle primitives for the rounded corners*
1,1,$1+$1,$2,$3*
1,1,$1+$1,$4,$5*
1,1,$1+$1,$6,$7*
1,1,$1+$1,$8,$9*
0 Add four rect primitives between the rounded corners*
20,1,$1+$1,$2,$3,$4,$5,0*
20,1,$1+$1,$4,$5,$6,$7,0*
20,1,$1+$1,$6,$7,$8,$9,0*
20,1,$1+$1,$8,$9,$2,$3,0*%
G04 Aperture macros list end*
%TA.AperFunction,ComponentPad*%
%ADD10C,2.100000*%
%TD*%
%TA.AperFunction,ComponentPad*%
%ADD11RoundRect,0.250001X-0.799999X0.799999X-0.799999X-0.799999X0.799999X-0.799999X0.799999X0.799999X0*%
%TD*%
%TA.AperFunction,SMDPad,CuDef*%
%ADD12RoundRect,0.150000X-0.825000X-0.150000X0.825000X-0.150000X0.825000X0.150000X-0.825000X0.150000X0*%
%TD*%
%TA.AperFunction,SMDPad,CuDef*%
%ADD13R,2.150000X5.500000*%
%TD*%
%TA.AperFunction,SMDPad,CuDef*%
%ADD14RoundRect,0.135000X0.135000X0.185000X-0.135000X0.185000X-0.135000X-0.185000X0.135000X-0.185000X0*%
%TD*%
%TA.AperFunction,SMDPad,CuDef*%
%ADD15RoundRect,0.250000X0.325000X0.650000X-0.325000X0.650000X-0.325000X-0.650000X0.325000X-0.650000X0*%
%TD*%
%TA.AperFunction,SMDPad,CuDef*%
%ADD16RoundRect,0.250000X-0.425000X0.450000X-0.425000X-0.450000X0.425000X-0.450000X0.425000X0.450000X0*%
%TD*%
%TA.AperFunction,SMDPad,CuDef*%
%ADD17RoundRect,0.140000X0.140000X0.170000X-0.140000X0.170000X-0.140000X-0.170000X0.140000X-0.170000X0*%
%TD*%
%TA.AperFunction,SMDPad,CuDef*%
%ADD18RoundRect,0.140000X-0.140000X-0.170000X0.140000X-0.170000X0.140000X0.170000X-0.140000X0.170000X0*%
%TD*%
%TA.AperFunction,SMDPad,CuDef*%
%ADD19R,0.450000X0.600000*%
%TD*%
%TA.AperFunction,SMDPad,CuDef*%
%ADD20RoundRect,0.135000X-0.185000X0.135000X-0.185000X-0.135000X0.185000X-0.135000X0.185000X0.135000X0*%
%TD*%
%TA.AperFunction,ViaPad*%
%ADD21C,0.800000*%
%TD*%
%TA.AperFunction,ViaPad*%
%ADD22C,0.600000*%
%TD*%
%TA.AperFunction,Conductor*%
%ADD23C,0.600000*%
%TD*%
%TA.AperFunction,Conductor*%
%ADD24C,0.250000*%
%TD*%
G04 APERTURE END LIST*
D10*
%TO.P,J1,2,Pin_2*%
%TO.N,GND*%
X119150000Y-87900000D03*
D11*
%TO.P,J1,1,Pin_1*%
%TO.N,VDD*%
X119150000Y-83300000D03*
%TD*%
D12*
%TO.P,U1,8,PH*%
%TO.N,Net-(C1-Pad2)*%
X129215000Y-83175000D03*
%TO.P,U1,7,GND*%
%TO.N,GND*%
X129215000Y-84445000D03*
%TO.P,U1,6,COMP*%
%TO.N,Net-(C4-Pad1)*%
X129215000Y-85715000D03*
%TO.P,U1,5,VSENSE*%
%TO.N,Net-(JP1-Pad2)*%
X129215000Y-86985000D03*
%TO.P,U1,4,SS*%
%TO.N,Net-(C6-Pad1)*%
X124265000Y-86985000D03*
%TO.P,U1,3,EN*%
%TO.N,unconnected-(U1-Pad3)*%
X124265000Y-85715000D03*
%TO.P,U1,2,VIN*%
%TO.N,VDD*%
X124265000Y-84445000D03*
%TO.P,U1,1,BOOT*%
%TO.N,Net-(C1-Pad1)*%
X124265000Y-83175000D03*
%TD*%
D13*
%TO.P,L1,2,2*%
%TO.N,/Vout*%
X137875000Y-83800000D03*
%TO.P,L1,1,1*%
%TO.N,Net-(C1-Pad2)*%
X134025000Y-83800000D03*
%TD*%
D10*
%TO.P,J2,2,Pin_2*%
%TO.N,GND*%
X140750000Y-87800000D03*
D11*
%TO.P,J2,1,Pin_1*%
%TO.N,/Vout*%
X140750000Y-83200000D03*
%TD*%
D14*
%TO.P,R1,2*%
%TO.N,Net-(JP1-Pad2)*%
X131040000Y-86400000D03*
%TO.P,R1,1*%
%TO.N,/Vout*%
X132060000Y-86400000D03*
%TD*%
D15*
%TO.P,C3,2*%
%TO.N,GND*%
X134075000Y-88400000D03*
%TO.P,C3,1*%
%TO.N,/Vout*%
X137025000Y-88400000D03*
%TD*%
D16*
%TO.P,C2,2*%
%TO.N,GND*%
X121750000Y-86150000D03*
%TO.P,C2,1*%
%TO.N,VDD*%
X121750000Y-83450000D03*
%TD*%
D17*
%TO.P,C5,2*%
%TO.N,GND*%
X123870000Y-88400000D03*
%TO.P,C5,1*%
%TO.N,Net-(C5-Pad1)*%
X124830000Y-88400000D03*
%TD*%
D18*
%TO.P,C1,2*%
%TO.N,Net-(C1-Pad2)*%
X128030000Y-81800000D03*
%TO.P,C1,1*%
%TO.N,Net-(C1-Pad1)*%
X127070000Y-81800000D03*
%TD*%
D19*
%TO.P,D1,2,A*%
%TO.N,GND*%
X131550000Y-85050000D03*
%TO.P,D1,1,K*%
%TO.N,Net-(C1-Pad2)*%
X131550000Y-82950000D03*
%TD*%
D20*
%TO.P,R4,2*%
%TO.N,GND*%
X132350000Y-88470000D03*
%TO.P,R4,1*%
%TO.N,Net-(JP1-Pad1)*%
X132350000Y-87450000D03*
%TD*%
D17*
%TO.P,C6,2*%
%TO.N,GND*%
X121190000Y-88000000D03*
%TO.P,C6,1*%
%TO.N,Net-(C6-Pad1)*%
X122150000Y-88000000D03*
%TD*%
D18*
%TO.P,C4,2*%
%TO.N,GND*%
X128830000Y-88400000D03*
%TO.P,C4,1*%
%TO.N,Net-(C4-Pad1)*%
X127870000Y-88400000D03*
%TD*%
D20*
%TO.P,R3,2*%
%TO.N,GND*%
X131150000Y-88470000D03*
%TO.P,R3,1*%
%TO.N,Net-(JP2-Pad1)*%
X131150000Y-87450000D03*
%TD*%
D14*
%TO.P,R2,2*%
%TO.N,Net-(C5-Pad1)*%
X125840000Y-88400000D03*
%TO.P,R2,1*%
%TO.N,Net-(C4-Pad1)*%
X126860000Y-88400000D03*
%TD*%
D21*
%TO.N,Net-(JP2-Pad1)*%
X129950000Y-88224500D03*
%TO.N,GND*%
X122950000Y-88600000D03*
X135550000Y-88800000D03*
X129372708Y-89040429D03*
X131950000Y-84200000D03*
X121727890Y-88853575D03*
X121350000Y-84800000D03*
X135550000Y-87800000D03*
D22*
%TO.N,Net-(JP1-Pad2)*%
X132355861Y-85498331D03*
D21*
%TO.N,Net-(JP1-Pad1)*%
X132350000Y-89339500D03*
%TD*%
D23*
%TO.N,/Vout*%
X140150000Y-83800000D02*
X140750000Y-83200000D01*
X137875000Y-83800000D02*
X140150000Y-83800000D01*
D24*
%TO.N,Net-(JP2-Pad1)*%
X130724500Y-87450000D02*
X129950000Y-88224500D01*
X131150000Y-87450000D02*
X130724500Y-87450000D01*
D23*
%TO.N,VDD*%
X121500000Y-83700000D02*
X121750000Y-83450000D01*
X119150000Y-83700000D02*
X121500000Y-83700000D01*
D24*
%TO.N,/Vout*%
X136150000Y-87000000D02*
X137025000Y-87875000D01*
X137025000Y-87875000D02*
X137025000Y-88400000D01*
X132875489Y-87000000D02*
X136150000Y-87000000D01*
X132275489Y-86400000D02*
X132875489Y-87000000D01*
X132060000Y-86400000D02*
X132275489Y-86400000D01*
D23*
X137875000Y-83800000D02*
X137875000Y-87550000D01*
X137875000Y-87550000D02*
X137025000Y-88400000D01*
D24*
%TO.N,Net-(C1-Pad1)*%
X127070000Y-81800000D02*
X126550000Y-81800000D01*
X125175000Y-83175000D02*
X124265000Y-83175000D01*
X126550000Y-81800000D02*
X125175000Y-83175000D01*
D23*
%TO.N,Net-(C1-Pad2)*%
X131550000Y-82950000D02*
X130800000Y-82950000D01*
D24*
X128030000Y-81990000D02*
X129215000Y-83175000D01*
D23*
X130800000Y-82950000D02*
X130550000Y-83200000D01*
X132175000Y-82950000D02*
X133825000Y-84600000D01*
D24*
X128030000Y-81800000D02*
X128030000Y-81990000D01*
D23*
X129240000Y-83200000D02*
X129215000Y-83175000D01*
X130550000Y-83200000D02*
X129240000Y-83200000D01*
X131550000Y-82950000D02*
X132175000Y-82950000D01*
%TO.N,VDD*%
X122745000Y-84445000D02*
X121750000Y-83450000D01*
X124265000Y-84445000D02*
X122745000Y-84445000D01*
%TO.N,GND*%
X130945000Y-84445000D02*
X131550000Y-85050000D01*
D24*
X131150000Y-88470000D02*
X130579571Y-89040429D01*
D23*
X129215000Y-84445000D02*
X130945000Y-84445000D01*
D24*
X123150000Y-88400000D02*
X122950000Y-88600000D01*
X128830000Y-88497721D02*
X129372708Y-89040429D01*
X121190000Y-88000000D02*
X121190000Y-88315685D01*
D23*
X131550000Y-85050000D02*
X131550000Y-84600000D01*
D24*
X121750000Y-86150000D02*
X121750000Y-85200000D01*
X128830000Y-88400000D02*
X128830000Y-88497721D01*
X123870000Y-88400000D02*
X123150000Y-88400000D01*
X130579571Y-89040429D02*
X129372708Y-89040429D01*
X121190000Y-88315685D02*
X121727890Y-88853575D01*
D23*
X131550000Y-84600000D02*
X131950000Y-84200000D01*
D24*
X131150000Y-88470000D02*
X132350000Y-88470000D01*
X121750000Y-85200000D02*
X121350000Y-84800000D01*
%TO.N,Net-(C4-Pad1)*%
X128838928Y-85715000D02*
X129215000Y-85715000D01*
X127870000Y-88400000D02*
X127870000Y-86683928D01*
X126860000Y-88400000D02*
X127870000Y-88400000D01*
X127870000Y-86683928D02*
X128838928Y-85715000D01*
%TO.N,Net-(C5-Pad1)*%
X124830000Y-88400000D02*
X125840000Y-88400000D01*
%TO.N,Net-(C6-Pad1)*%
X123165000Y-86985000D02*
X124265000Y-86985000D01*
X122150000Y-88000000D02*
X123165000Y-86985000D01*
%TO.N,Net-(JP1-Pad2)*%
X131765489Y-85674511D02*
X131040000Y-86400000D01*
X132355861Y-85498331D02*
X132179681Y-85674511D01*
X129215000Y-86985000D02*
X130455000Y-86985000D01*
X130455000Y-86985000D02*
X131040000Y-86400000D01*
X132179681Y-85674511D02*
X131765489Y-85674511D01*
%TO.N,Net-(JP1-Pad1)*%
X132725339Y-87875480D02*
X132350000Y-87875480D01*
X132994520Y-89155480D02*
X132994520Y-88144661D01*
X132350000Y-89339500D02*
X132810500Y-89339500D01*
X132810500Y-89339500D02*
X132994520Y-89155480D01*
X132994520Y-88144661D02*
X132725339Y-87875480D01*
X132350000Y-87875480D02*
X132350000Y-87450000D01*
%TD*%
%TA.AperFunction,Conductor*%
%TO.N,GND*%
G36*
X135883621Y-87653502D02*
G01*
X135930114Y-87707158D01*
X135941500Y-87759500D01*
X135941500Y-89100400D01*
X135952474Y-89206166D01*
X135954655Y-89212702D01*
X135954655Y-89212704D01*
X135994998Y-89333625D01*
X136008450Y-89373946D01*
X136029337Y-89407698D01*
X136048174Y-89476148D01*
X136027013Y-89543918D01*
X135972572Y-89589489D01*
X135922192Y-89600000D01*
X133686118Y-89600000D01*
X133617997Y-89579998D01*
X133571504Y-89526342D01*
X133561400Y-89456068D01*
X133575704Y-89413299D01*
X133584394Y-89397492D01*
X133584396Y-89397486D01*
X133588215Y-89390540D01*
X133593253Y-89370917D01*
X133599657Y-89352214D01*
X133604553Y-89340900D01*
X133604553Y-89340899D01*
X133607701Y-89333625D01*
X133608940Y-89325802D01*
X133608943Y-89325792D01*
X133614619Y-89289956D01*
X133617025Y-89278336D01*
X133626048Y-89243191D01*
X133626048Y-89243190D01*
X133628020Y-89235510D01*
X133628020Y-89215256D01*
X133629571Y-89195545D01*
X133631500Y-89183366D01*
X133632740Y-89175537D01*
X133628579Y-89131518D01*
X133628020Y-89119661D01*
X133628020Y-88223424D01*
X133628547Y-88212240D01*
X133630221Y-88204752D01*
X133628082Y-88136693D01*
X133628020Y-88132736D01*
X133628020Y-88104805D01*
X133627514Y-88100799D01*
X133626581Y-88088953D01*
X133625442Y-88052698D01*
X133625193Y-88044771D01*
X133619542Y-88025319D01*
X133615534Y-88005967D01*
X133613988Y-87993729D01*
X133613987Y-87993727D01*
X133612994Y-87985864D01*
X133596714Y-87944747D01*
X133592879Y-87933546D01*
X133580538Y-87891067D01*
X133576505Y-87884248D01*
X133576503Y-87884243D01*
X133570227Y-87873632D01*
X133561530Y-87855882D01*
X133554072Y-87837044D01*
X133549410Y-87830627D01*
X133545593Y-87823684D01*
X133547621Y-87822569D01*
X133527683Y-87766704D01*
X133543758Y-87697551D01*
X133594667Y-87648066D01*
X133653477Y-87633500D01*
X135815500Y-87633500D01*
X135883621Y-87653502D01*
G37*
%TD.AperFunction*%
%TD*%
M02*
