%TF.GenerationSoftware,KiCad,Pcbnew,(6.0.0)*%
%TF.CreationDate,2022-04-14T10:30:36+02:00*%
%TF.ProjectId,StepDown_Converter,53746570-446f-4776-9e5f-436f6e766572,rev?*%
%TF.SameCoordinates,Original*%
%TF.FileFunction,Copper,L2,Bot*%
%TF.FilePolarity,Positive*%
%FSLAX46Y46*%
G04 Gerber Fmt 4.6, Leading zero omitted, Abs format (unit mm)*
G04 Created by KiCad (PCBNEW (6.0.0)) date 2022-04-14 10:30:36*
%MOMM*%
%LPD*%
G01*
G04 APERTURE LIST*
G04 Aperture macros list*
%AMRoundRect*
0 Rectangle with rounded corners*
0 $1 Rounding radius*
0 $2 $3 $4 $5 $6 $7 $8 $9 X,Y pos of 4 corners*
0 Add a 4 corners polygon primitive as box body*
4,1,4,$2,$3,$4,$5,$6,$7,$8,$9,$2,$3,0*
0 Add four circle primitives for the rounded corners*
1,1,$1+$1,$2,$3*
1,1,$1+$1,$4,$5*
1,1,$1+$1,$6,$7*
1,1,$1+$1,$8,$9*
0 Add four rect primitives between the rounded corners*
20,1,$1+$1,$2,$3,$4,$5,0*
20,1,$1+$1,$4,$5,$6,$7,0*
20,1,$1+$1,$6,$7,$8,$9,0*
20,1,$1+$1,$8,$9,$2,$3,0*%
%AMFreePoly0*
4,1,6,0.500000,-0.750000,-0.650000,-0.750000,-0.150000,0.000000,-0.650000,0.750000,0.500000,0.750000,0.500000,-0.750000,0.500000,-0.750000,$1*%
%AMFreePoly1*
4,1,6,1.000000,0.000000,0.500000,-0.750000,-0.500000,-0.750000,-0.500000,0.750000,0.500000,0.750000,1.000000,0.000000,1.000000,0.000000,$1*%
G04 Aperture macros list end*
%TA.AperFunction,ComponentPad*%
%ADD10C,2.100000*%
%TD*%
%TA.AperFunction,ComponentPad*%
%ADD11RoundRect,0.250001X-0.799999X0.799999X-0.799999X-0.799999X0.799999X-0.799999X0.799999X0.799999X0*%
%TD*%
%TA.AperFunction,SMDPad,CuDef*%
%ADD12FreePoly0,90.000000*%
%TD*%
%TA.AperFunction,SMDPad,CuDef*%
%ADD13FreePoly1,90.000000*%
%TD*%
%TA.AperFunction,ViaPad*%
%ADD14C,0.800000*%
%TD*%
%TA.AperFunction,ViaPad*%
%ADD15C,0.600000*%
%TD*%
%TA.AperFunction,Conductor*%
%ADD16C,0.250000*%
%TD*%
G04 APERTURE END LIST*
D10*
%TO.P,J1,2,Pin_2*%
%TO.N,GND*%
X119150000Y-87900000D03*
D11*
%TO.P,J1,1,Pin_1*%
%TO.N,VDD*%
X119150000Y-83300000D03*
%TD*%
D10*
%TO.P,J2,2,Pin_2*%
%TO.N,GND*%
X140750000Y-87800000D03*
D11*
%TO.P,J2,1,Pin_1*%
%TO.N,/Vout*%
X140750000Y-83200000D03*
%TD*%
D12*
%TO.P,JP2,2,B*%
%TO.N,Net-(JP1-Pad2)*%
X126550000Y-85675000D03*
D13*
%TO.P,JP2,1,A*%
%TO.N,Net-(JP2-Pad1)*%
X126550000Y-87125000D03*
%TD*%
D12*
%TO.P,JP1,2,B*%
%TO.N,Net-(JP1-Pad2)*%
X129550000Y-85675000D03*
D13*
%TO.P,JP1,1,A*%
%TO.N,Net-(JP1-Pad1)*%
X129550000Y-87125000D03*
%TD*%
D14*
%TO.N,Net-(JP2-Pad1)*%
X129950000Y-88224500D03*
%TO.N,GND*%
X122950000Y-88600000D03*
X135550000Y-88800000D03*
X129372708Y-89040429D03*
X131950000Y-84200000D03*
X121727890Y-88853575D03*
X121350000Y-84800000D03*
X135550000Y-87800000D03*
D15*
%TO.N,Net-(JP1-Pad2)*%
X132355861Y-85498331D03*
D14*
%TO.N,Net-(JP1-Pad1)*%
X132350000Y-89339500D03*
%TD*%
D16*
%TO.N,Net-(JP1-Pad2)*%
X129550000Y-85675000D02*
X126550000Y-85675000D01*
X132179192Y-85675000D02*
X129550000Y-85675000D01*
%TO.N,Net-(JP2-Pad1)*%
X127649500Y-88224500D02*
X126550000Y-87125000D01*
X129950000Y-88224500D02*
X127649500Y-88224500D01*
%TO.N,Net-(JP1-Pad2)*%
X132355861Y-85498331D02*
X132179192Y-85675000D01*
%TO.N,Net-(JP1-Pad1)*%
X132350000Y-89000000D02*
X130475000Y-87125000D01*
X132350000Y-89339500D02*
X132350000Y-89000000D01*
X130475000Y-87125000D02*
X129550000Y-87125000D01*
%TD*%
%TA.AperFunction,Conductor*%
%TO.N,GND*%
G36*
X141470057Y-81009500D02*
G01*
X141484858Y-81011805D01*
X141484862Y-81011805D01*
X141493731Y-81013186D01*
X141502633Y-81012022D01*
X141502637Y-81012022D01*
X141502733Y-81012009D01*
X141533170Y-81011738D01*
X141595375Y-81018746D01*
X141622882Y-81025024D01*
X141700071Y-81052034D01*
X141725491Y-81064276D01*
X141794738Y-81107787D01*
X141816797Y-81125379D01*
X141874621Y-81183203D01*
X141892213Y-81205262D01*
X141935724Y-81274509D01*
X141947966Y-81299930D01*
X141974975Y-81377117D01*
X141981254Y-81404624D01*
X141987522Y-81460251D01*
X141988305Y-81475897D01*
X141988196Y-81484855D01*
X141986814Y-81493729D01*
X141988454Y-81506269D01*
X141990936Y-81525250D01*
X141992000Y-81541588D01*
X141992000Y-81572900D01*
X141971998Y-81641021D01*
X141918342Y-81687514D01*
X141848068Y-81697618D01*
X141826333Y-81692493D01*
X141711389Y-81654368D01*
X141711387Y-81654368D01*
X141704861Y-81652203D01*
X141698025Y-81651503D01*
X141698022Y-81651502D01*
X141654969Y-81647091D01*
X141600400Y-81641500D01*
X139899600Y-81641500D01*
X139896354Y-81641837D01*
X139896350Y-81641837D01*
X139800693Y-81651762D01*
X139800689Y-81651763D01*
X139793835Y-81652474D01*
X139787299Y-81654655D01*
X139787297Y-81654655D01*
X139673884Y-81692493D01*
X139626055Y-81708450D01*
X139475652Y-81801522D01*
X139350695Y-81926697D01*
X139346855Y-81932927D01*
X139346854Y-81932928D01*
X139292887Y-82020479D01*
X139257885Y-82077262D01*
X139202203Y-82245139D01*
X139191500Y-82349600D01*
X139191500Y-84050400D01*
X139202474Y-84156165D01*
X139258450Y-84323945D01*
X139351522Y-84474348D01*
X139476697Y-84599305D01*
X139482927Y-84603145D01*
X139482928Y-84603146D01*
X139617058Y-84685825D01*
X139627262Y-84692115D01*
X139673662Y-84707505D01*
X139788611Y-84745632D01*
X139788613Y-84745632D01*
X139795139Y-84747797D01*
X139801975Y-84748497D01*
X139801978Y-84748498D01*
X139845031Y-84752909D01*
X139899600Y-84758500D01*
X141600400Y-84758500D01*
X141603646Y-84758163D01*
X141603650Y-84758163D01*
X141699307Y-84748238D01*
X141699311Y-84748237D01*
X141706165Y-84747526D01*
X141712707Y-84745343D01*
X141712709Y-84745343D01*
X141826123Y-84707505D01*
X141897073Y-84704920D01*
X141958157Y-84741103D01*
X141989982Y-84804567D01*
X141992000Y-84827028D01*
X141992000Y-86865020D01*
X141971998Y-86933141D01*
X141955095Y-86954115D01*
X141122022Y-87787188D01*
X141114408Y-87801132D01*
X141114539Y-87802965D01*
X141118790Y-87809580D01*
X141955095Y-88645885D01*
X141989121Y-88708197D01*
X141992000Y-88734980D01*
X141992000Y-89450673D01*
X141990500Y-89470057D01*
X141988195Y-89484858D01*
X141988195Y-89484862D01*
X141986814Y-89493731D01*
X141987978Y-89502633D01*
X141987978Y-89502637D01*
X141987991Y-89502733D01*
X141988262Y-89533170D01*
X141981254Y-89595375D01*
X141974975Y-89622885D01*
X141947966Y-89700071D01*
X141935724Y-89725491D01*
X141892213Y-89794738D01*
X141874621Y-89816797D01*
X141816797Y-89874621D01*
X141794738Y-89892213D01*
X141725491Y-89935724D01*
X141700070Y-89947966D01*
X141622883Y-89974975D01*
X141595376Y-89981254D01*
X141571428Y-89983952D01*
X141539744Y-89987522D01*
X141524103Y-89988305D01*
X141515145Y-89988196D01*
X141506271Y-89986814D01*
X141474750Y-89990936D01*
X141458412Y-89992000D01*
X133240562Y-89992000D01*
X133172441Y-89971998D01*
X133125948Y-89918342D01*
X133115844Y-89848068D01*
X133131443Y-89803000D01*
X133181223Y-89716779D01*
X133181224Y-89716778D01*
X133184527Y-89711056D01*
X133243542Y-89529428D01*
X133248227Y-89484858D01*
X133262814Y-89346065D01*
X133263504Y-89339500D01*
X133247780Y-89189893D01*
X133244232Y-89156135D01*
X133244232Y-89156133D01*
X133243542Y-89149572D01*
X133217372Y-89069030D01*
X139845800Y-89069030D01*
X139851527Y-89076680D01*
X140036272Y-89189893D01*
X140045067Y-89194375D01*
X140262490Y-89284434D01*
X140271875Y-89287483D01*
X140500708Y-89342422D01*
X140510455Y-89343965D01*
X140745070Y-89362430D01*
X140754930Y-89362430D01*
X140989545Y-89343965D01*
X140999292Y-89342422D01*
X141228125Y-89287483D01*
X141237510Y-89284434D01*
X141454933Y-89194375D01*
X141463728Y-89189893D01*
X141644805Y-89078928D01*
X141654267Y-89068470D01*
X141650484Y-89059694D01*
X140762812Y-88172022D01*
X140748868Y-88164408D01*
X140747035Y-88164539D01*
X140740420Y-88168790D01*
X139852560Y-89056650D01*
X139845800Y-89069030D01*
X133217372Y-89069030D01*
X133184527Y-88967944D01*
X133089040Y-88802556D01*
X133059059Y-88769258D01*
X132965675Y-88665545D01*
X132965674Y-88665544D01*
X132961253Y-88660634D01*
X132806752Y-88548382D01*
X132800717Y-88545695D01*
X132795003Y-88542396D01*
X132795752Y-88541100D01*
X132767770Y-88521865D01*
X132050835Y-87804930D01*
X139187570Y-87804930D01*
X139206035Y-88039545D01*
X139207578Y-88049292D01*
X139262517Y-88278125D01*
X139265566Y-88287510D01*
X139355625Y-88504933D01*
X139360107Y-88513728D01*
X139471072Y-88694805D01*
X139481530Y-88704267D01*
X139490306Y-88700484D01*
X140377978Y-87812812D01*
X140385592Y-87798868D01*
X140385461Y-87797035D01*
X140381210Y-87790420D01*
X139493350Y-86902560D01*
X139480970Y-86895800D01*
X139473320Y-86901527D01*
X139360107Y-87086272D01*
X139355625Y-87095067D01*
X139265566Y-87312490D01*
X139262517Y-87321875D01*
X139207578Y-87550708D01*
X139206035Y-87560455D01*
X139187570Y-87795070D01*
X139187570Y-87804930D01*
X132050835Y-87804930D01*
X130978652Y-86732747D01*
X130971112Y-86724461D01*
X130967000Y-86717982D01*
X130917348Y-86671356D01*
X130914507Y-86668602D01*
X130894770Y-86648865D01*
X130891573Y-86646385D01*
X130882551Y-86638680D01*
X130856099Y-86613840D01*
X130856100Y-86613840D01*
X130850321Y-86608414D01*
X130850050Y-86608265D01*
X130808767Y-86554724D01*
X130804708Y-86542479D01*
X130801692Y-86531530D01*
X139845733Y-86531530D01*
X139849516Y-86540306D01*
X140737188Y-87427978D01*
X140751132Y-87435592D01*
X140752965Y-87435461D01*
X140759580Y-87431210D01*
X141647440Y-86543350D01*
X141654200Y-86530970D01*
X141648473Y-86523320D01*
X141463728Y-86410107D01*
X141454933Y-86405625D01*
X141237510Y-86315566D01*
X141228125Y-86312517D01*
X140999292Y-86257578D01*
X140989545Y-86256035D01*
X140754930Y-86237570D01*
X140745070Y-86237570D01*
X140510455Y-86256035D01*
X140500708Y-86257578D01*
X140271875Y-86312517D01*
X140262490Y-86315566D01*
X140045067Y-86405625D01*
X140036272Y-86410107D01*
X139855195Y-86521072D01*
X139845733Y-86531530D01*
X130801692Y-86531530D01*
X130797075Y-86514768D01*
X130793833Y-86463375D01*
X130798060Y-86433981D01*
X130800563Y-86416567D01*
X130830056Y-86351987D01*
X130889782Y-86313604D01*
X130925280Y-86308500D01*
X132100425Y-86308500D01*
X132111608Y-86309027D01*
X132119101Y-86310702D01*
X132127027Y-86310453D01*
X132127028Y-86310453D01*
X132187178Y-86308562D01*
X132191137Y-86308500D01*
X132219048Y-86308500D01*
X132222983Y-86308003D01*
X132223048Y-86307995D01*
X132234885Y-86307062D01*
X132274684Y-86305811D01*
X132279082Y-86305673D01*
X132279120Y-86306878D01*
X132300280Y-86306627D01*
X132322114Y-86309540D01*
X132338822Y-86311769D01*
X132345833Y-86311131D01*
X132345837Y-86311131D01*
X132488320Y-86298163D01*
X132519461Y-86295329D01*
X132526163Y-86293151D01*
X132526165Y-86293151D01*
X132685270Y-86241455D01*
X132685273Y-86241454D01*
X132691969Y-86239278D01*
X132847773Y-86146400D01*
X132979127Y-86021313D01*
X133079504Y-85870233D01*
X133143916Y-85700669D01*
X133169160Y-85521048D01*
X133169477Y-85498331D01*
X133149258Y-85318076D01*
X133099434Y-85175000D01*
X133091925Y-85153437D01*
X133091923Y-85153434D01*
X133089606Y-85146779D01*
X133011679Y-85022068D01*
X132997220Y-84998929D01*
X132993487Y-84992955D01*
X132962339Y-84961589D01*
X132870639Y-84869246D01*
X132870635Y-84869243D01*
X132865676Y-84864249D01*
X132856101Y-84858172D01*
X132771632Y-84804567D01*
X132712527Y-84767058D01*
X132661045Y-84748726D01*
X132548286Y-84708574D01*
X132548281Y-84708573D01*
X132541651Y-84706212D01*
X132534663Y-84705379D01*
X132534660Y-84705378D01*
X132391228Y-84688275D01*
X132361541Y-84684735D01*
X132354538Y-84685471D01*
X132354537Y-84685471D01*
X132188149Y-84702959D01*
X132188147Y-84702960D01*
X132181149Y-84703695D01*
X132009440Y-84762149D01*
X131957882Y-84793868D01*
X131860956Y-84853497D01*
X131860953Y-84853499D01*
X131854949Y-84857193D01*
X131849914Y-84862124D01*
X131849911Y-84862126D01*
X131756085Y-84954008D01*
X131725354Y-84984102D01*
X131721539Y-84990021D01*
X131717367Y-84995137D01*
X131658812Y-85035284D01*
X131619725Y-85041500D01*
X130883363Y-85041500D01*
X130815242Y-85021498D01*
X130769340Y-84968522D01*
X130767304Y-84961589D01*
X130731229Y-84905455D01*
X130693122Y-84846159D01*
X130693120Y-84846156D01*
X130688250Y-84838579D01*
X130681440Y-84832678D01*
X130584555Y-84748726D01*
X130584552Y-84748724D01*
X130577743Y-84742824D01*
X130444734Y-84682081D01*
X130300000Y-84661271D01*
X128800000Y-84661271D01*
X128791024Y-84661913D01*
X128733627Y-84666018D01*
X128733626Y-84666018D01*
X128726889Y-84666500D01*
X128652731Y-84688275D01*
X128595235Y-84705157D01*
X128595233Y-84705158D01*
X128586589Y-84707696D01*
X128579010Y-84712567D01*
X128471159Y-84781878D01*
X128471156Y-84781880D01*
X128463579Y-84786750D01*
X128457678Y-84793560D01*
X128373726Y-84890445D01*
X128373724Y-84890448D01*
X128367824Y-84897257D01*
X128364080Y-84905454D01*
X128364080Y-84905455D01*
X128335589Y-84967842D01*
X128289096Y-85021498D01*
X128220975Y-85041500D01*
X127883363Y-85041500D01*
X127815242Y-85021498D01*
X127769340Y-84968522D01*
X127767304Y-84961589D01*
X127731229Y-84905455D01*
X127693122Y-84846159D01*
X127693120Y-84846156D01*
X127688250Y-84838579D01*
X127681440Y-84832678D01*
X127584555Y-84748726D01*
X127584552Y-84748724D01*
X127577743Y-84742824D01*
X127444734Y-84682081D01*
X127300000Y-84661271D01*
X125800000Y-84661271D01*
X125791024Y-84661913D01*
X125733627Y-84666018D01*
X125733626Y-84666018D01*
X125726889Y-84666500D01*
X125652731Y-84688275D01*
X125595235Y-84705157D01*
X125595233Y-84705158D01*
X125586589Y-84707696D01*
X125579010Y-84712567D01*
X125471159Y-84781878D01*
X125471156Y-84781880D01*
X125463579Y-84786750D01*
X125457678Y-84793560D01*
X125373726Y-84890445D01*
X125373724Y-84890448D01*
X125367824Y-84897257D01*
X125307081Y-85030266D01*
X125286271Y-85175000D01*
X125286271Y-86325000D01*
X125292800Y-86406645D01*
X125294889Y-86413342D01*
X125294890Y-86413345D01*
X125301328Y-86433981D01*
X125305762Y-86489438D01*
X125286271Y-86625000D01*
X125286271Y-87625000D01*
X125291500Y-87698111D01*
X125293404Y-87704594D01*
X125318605Y-87790420D01*
X125332696Y-87838411D01*
X125337567Y-87845990D01*
X125406878Y-87953841D01*
X125406880Y-87953844D01*
X125411750Y-87961421D01*
X125418560Y-87967322D01*
X125515445Y-88051274D01*
X125515448Y-88051276D01*
X125522257Y-88057176D01*
X125655266Y-88117919D01*
X125800000Y-88138729D01*
X126615634Y-88138729D01*
X126683755Y-88158731D01*
X126704729Y-88175634D01*
X127145848Y-88616753D01*
X127153388Y-88625039D01*
X127157500Y-88631518D01*
X127163277Y-88636943D01*
X127207151Y-88678143D01*
X127209993Y-88680898D01*
X127229730Y-88700635D01*
X127232927Y-88703115D01*
X127241947Y-88710818D01*
X127274179Y-88741086D01*
X127281125Y-88744905D01*
X127281128Y-88744907D01*
X127291934Y-88750848D01*
X127308453Y-88761699D01*
X127324459Y-88774114D01*
X127331728Y-88777259D01*
X127331732Y-88777262D01*
X127365037Y-88791674D01*
X127375687Y-88796891D01*
X127414440Y-88818195D01*
X127422115Y-88820166D01*
X127422116Y-88820166D01*
X127434062Y-88823233D01*
X127452767Y-88829637D01*
X127471355Y-88837681D01*
X127479178Y-88838920D01*
X127479188Y-88838923D01*
X127515024Y-88844599D01*
X127526644Y-88847005D01*
X127561789Y-88856028D01*
X127569470Y-88858000D01*
X127589724Y-88858000D01*
X127609434Y-88859551D01*
X127629443Y-88862720D01*
X127637335Y-88861974D01*
X127673461Y-88858559D01*
X127685319Y-88858000D01*
X129241800Y-88858000D01*
X129309921Y-88878002D01*
X129329147Y-88894343D01*
X129329420Y-88894040D01*
X129334332Y-88898463D01*
X129338747Y-88903366D01*
X129360329Y-88919046D01*
X129427631Y-88967944D01*
X129493248Y-89015618D01*
X129499276Y-89018302D01*
X129499278Y-89018303D01*
X129630396Y-89076680D01*
X129667712Y-89093294D01*
X129755222Y-89111895D01*
X129848056Y-89131628D01*
X129848061Y-89131628D01*
X129854513Y-89133000D01*
X130045487Y-89133000D01*
X130051939Y-89131628D01*
X130051944Y-89131628D01*
X130144778Y-89111895D01*
X130232288Y-89093294D01*
X130269604Y-89076680D01*
X130400722Y-89018303D01*
X130400724Y-89018302D01*
X130406752Y-89015618D01*
X130561253Y-88903366D01*
X130597851Y-88862720D01*
X130684621Y-88766352D01*
X130684622Y-88766351D01*
X130689040Y-88761444D01*
X130784527Y-88596056D01*
X130786569Y-88589772D01*
X130789253Y-88583743D01*
X130790728Y-88584400D01*
X130826195Y-88532522D01*
X130891589Y-88504880D01*
X130961547Y-88516980D01*
X130995058Y-88540962D01*
X131437961Y-88983865D01*
X131471987Y-89046177D01*
X131468699Y-89111895D01*
X131458501Y-89143282D01*
X131458500Y-89143289D01*
X131456458Y-89149572D01*
X131455768Y-89156135D01*
X131455767Y-89156142D01*
X131441963Y-89287483D01*
X131436496Y-89339500D01*
X131437186Y-89346065D01*
X131451774Y-89484858D01*
X131456458Y-89529428D01*
X131515473Y-89711056D01*
X131518776Y-89716778D01*
X131518777Y-89716779D01*
X131568557Y-89803000D01*
X131585295Y-89871995D01*
X131562075Y-89939087D01*
X131506268Y-89982974D01*
X131459438Y-89992000D01*
X118549327Y-89992000D01*
X118529943Y-89990500D01*
X118515142Y-89988195D01*
X118515138Y-89988195D01*
X118506269Y-89986814D01*
X118497367Y-89987978D01*
X118497363Y-89987978D01*
X118497267Y-89987991D01*
X118466830Y-89988262D01*
X118404625Y-89981254D01*
X118377118Y-89974976D01*
X118299928Y-89947966D01*
X118274509Y-89935724D01*
X118205262Y-89892213D01*
X118183203Y-89874621D01*
X118125379Y-89816797D01*
X118107787Y-89794738D01*
X118064276Y-89725491D01*
X118052034Y-89700070D01*
X118025025Y-89622883D01*
X118018746Y-89595376D01*
X118012478Y-89539749D01*
X118011695Y-89524103D01*
X118011804Y-89515145D01*
X118013186Y-89506271D01*
X118009064Y-89474749D01*
X118008000Y-89458412D01*
X118008000Y-89246860D01*
X118028002Y-89178739D01*
X118081658Y-89132246D01*
X118151932Y-89122142D01*
X118215830Y-89151048D01*
X118227639Y-89161134D01*
X118235624Y-89166935D01*
X118436272Y-89289893D01*
X118445067Y-89294375D01*
X118662490Y-89384434D01*
X118671875Y-89387483D01*
X118900708Y-89442422D01*
X118910455Y-89443965D01*
X119145070Y-89462430D01*
X119154930Y-89462430D01*
X119389545Y-89443965D01*
X119399292Y-89442422D01*
X119628125Y-89387483D01*
X119637510Y-89384434D01*
X119854933Y-89294375D01*
X119863728Y-89289893D01*
X120044805Y-89178928D01*
X120054267Y-89168470D01*
X120050484Y-89159694D01*
X118879885Y-87989095D01*
X118845859Y-87926783D01*
X118847694Y-87901132D01*
X119514408Y-87901132D01*
X119514539Y-87902965D01*
X119518790Y-87909580D01*
X120406650Y-88797440D01*
X120419030Y-88804200D01*
X120426680Y-88798473D01*
X120539893Y-88613728D01*
X120544375Y-88604933D01*
X120634434Y-88387510D01*
X120637483Y-88378125D01*
X120692422Y-88149292D01*
X120693965Y-88139545D01*
X120712430Y-87904930D01*
X120712430Y-87895070D01*
X120693965Y-87660455D01*
X120692422Y-87650708D01*
X120637483Y-87421875D01*
X120634434Y-87412490D01*
X120544375Y-87195067D01*
X120539893Y-87186272D01*
X120428928Y-87005195D01*
X120418470Y-86995733D01*
X120409694Y-86999516D01*
X119522022Y-87887188D01*
X119514408Y-87901132D01*
X118847694Y-87901132D01*
X118850924Y-87855968D01*
X118879885Y-87810905D01*
X120047440Y-86643350D01*
X120054200Y-86630970D01*
X120048473Y-86623320D01*
X119863728Y-86510107D01*
X119854933Y-86505625D01*
X119637510Y-86415566D01*
X119628125Y-86412517D01*
X119399292Y-86357578D01*
X119389545Y-86356035D01*
X119154930Y-86337570D01*
X119145070Y-86337570D01*
X118910455Y-86356035D01*
X118900708Y-86357578D01*
X118671875Y-86412517D01*
X118662490Y-86415566D01*
X118445067Y-86505625D01*
X118436272Y-86510107D01*
X118235624Y-86633065D01*
X118227639Y-86638866D01*
X118215830Y-86648952D01*
X118151040Y-86677982D01*
X118080840Y-86667377D01*
X118027518Y-86620501D01*
X118008000Y-86553140D01*
X118008000Y-84960268D01*
X118028002Y-84892147D01*
X118081658Y-84845654D01*
X118151932Y-84835550D01*
X118173664Y-84840674D01*
X118195139Y-84847797D01*
X118201975Y-84848497D01*
X118201978Y-84848498D01*
X118245031Y-84852909D01*
X118299600Y-84858500D01*
X120000400Y-84858500D01*
X120003646Y-84858163D01*
X120003650Y-84858163D01*
X120099307Y-84848238D01*
X120099311Y-84848237D01*
X120106165Y-84847526D01*
X120112701Y-84845345D01*
X120112703Y-84845345D01*
X120266997Y-84793868D01*
X120273945Y-84791550D01*
X120424348Y-84698478D01*
X120549305Y-84573303D01*
X120553146Y-84567072D01*
X120638275Y-84428968D01*
X120638276Y-84428966D01*
X120642115Y-84422738D01*
X120697797Y-84254861D01*
X120708500Y-84150400D01*
X120708500Y-82449600D01*
X120697526Y-82343835D01*
X120641550Y-82176055D01*
X120548478Y-82025652D01*
X120423303Y-81900695D01*
X120417072Y-81896854D01*
X120278968Y-81811725D01*
X120278966Y-81811724D01*
X120272738Y-81807885D01*
X120192885Y-81781399D01*
X120111389Y-81754368D01*
X120111387Y-81754368D01*
X120104861Y-81752203D01*
X120098025Y-81751503D01*
X120098022Y-81751502D01*
X120054969Y-81747091D01*
X120000400Y-81741500D01*
X118299600Y-81741500D01*
X118296354Y-81741837D01*
X118296350Y-81741837D01*
X118200693Y-81751762D01*
X118200689Y-81751763D01*
X118193835Y-81752474D01*
X118187302Y-81754654D01*
X118187291Y-81754656D01*
X118173877Y-81759132D01*
X118102928Y-81761718D01*
X118041843Y-81725534D01*
X118010018Y-81662070D01*
X118008000Y-81639609D01*
X118008000Y-81549327D01*
X118009500Y-81529943D01*
X118011805Y-81515142D01*
X118011805Y-81515138D01*
X118013186Y-81506269D01*
X118012022Y-81497367D01*
X118012022Y-81497363D01*
X118012009Y-81497267D01*
X118011738Y-81466830D01*
X118018746Y-81404625D01*
X118025025Y-81377115D01*
X118052034Y-81299929D01*
X118064276Y-81274509D01*
X118107787Y-81205262D01*
X118125379Y-81183203D01*
X118183203Y-81125379D01*
X118205262Y-81107787D01*
X118274509Y-81064276D01*
X118299930Y-81052034D01*
X118377117Y-81025025D01*
X118404624Y-81018746D01*
X118428572Y-81016048D01*
X118460256Y-81012478D01*
X118475897Y-81011695D01*
X118484855Y-81011804D01*
X118493729Y-81013186D01*
X118525251Y-81009064D01*
X118541588Y-81008000D01*
X141450673Y-81008000D01*
X141470057Y-81009500D01*
G37*
%TD.AperFunction*%
%TD*%
M02*
